<svg xmlns="http://www.w3.org/2000/svg" viewBox="0 0 32 32" fill="none">
  <!-- Background circle -->
  <circle cx="16" cy="16" r="16" fill="#1890ff"/>
  
  <!-- Book icon -->
  <path d="M8 6h12c1.1 0 2 .9 2 2v16c0 1.1-.9 2-2 2H8c-1.1 0-2-.9-2-2V8c0-1.1.9-2 2-2z" fill="white"/>
  
  <!-- Pages -->
  <path d="M10 10h8v2h-8v-2zm0 4h8v2h-8v-2zm0 4h6v2h-6v-2z" fill="#1890ff"/>
  
  <!-- Data symbol -->
  <circle cx="20" cy="10" r="2" fill="#52c41a"/>
  <circle cx="20" cy="16" r="2" fill="#faad14"/>
  <circle cx="20" cy="22" r="2" fill="#f5222d"/>
</svg>